<?xml version="1.0" standalone="no"?>
<!DOCTYPE svg PUBLIC "-//W3C//DTD SVG 20010904//EN"
 "http://www.w3.org/TR/2001/REC-SVG-20010904/DTD/svg10.dtd">
<svg version="1.0" xmlns="http://www.w3.org/2000/svg"
 width="256.000000pt" height="256.000000pt" viewBox="0 0 256.000000 256.000000"
 preserveAspectRatio="xMidYMid meet">

<g transform="translate(0.000000,256.000000) scale(0.100000,-0.100000)"
fill="#000000" stroke="none">
<path d="M419 2410 c-116 -20 -210 -95 -250 -198 -18 -46 -22 -85 -27 -209
l-5 -153 1143 0 1143 0 -5 153 c-5 125 -9 162 -28 210 -29 76 -100 147 -177
179 l-58 23 -845 2 c-465 0 -866 -3 -891 -7z m492 -245 c54 -29 63 -83 20
-126 l-29 -29 -190 0 c-176 0 -191 1 -216 21 -19 15 -26 30 -26 54 0 84 25 94
243 95 133 0 174 -3 198 -15z m837 -21 c62 -70 -29 -172 -106 -118 -53 37 -52
102 1 135 39 24 73 18 105 -17z m293 26 c5 0 18 -9 29 -20 47 -47 7 -140 -60
-140 -69 0 -107 92 -57 137 26 24 47 33 65 27 8 -2 18 -4 23 -4z"/>
<path d="M150 1045 c0 -625 0 -635 22 -692 29 -77 104 -152 181 -181 57 -22
62 -22 927 -22 865 0 870 0 927 22 77 29 152 104 181 181 22 57 22 67 22 692
l0 635 -1130 0 -1130 0 0 -635z m789 209 c42 -53 31 -80 -84 -214 -58 -67
-105 -124 -105 -127 0 -2 40 -50 88 -106 49 -56 96 -113 105 -127 39 -56 1
-134 -66 -134 -19 0 -43 7 -53 14 -40 34 -273 313 -278 335 -3 13 -2 34 3 47
5 13 70 94 145 181 l137 157 44 0 c35 0 48 -5 64 -26z m528 4 c15 -14 23 -33
23 -55 0 -36 -239 -604 -267 -635 -23 -25 -67 -32 -101 -14 -33 17 -42 34 -42
77 0 32 242 603 267 632 23 25 91 23 120 -5z m399 -135 c75 -87 140 -168 145
-181 5 -13 6 -34 3 -48 -9 -33 -270 -333 -301 -345 -54 -20 -113 23 -113 81 0
33 12 52 105 159 58 66 105 123 105 125 0 2 -47 59 -105 126 -115 134 -126
161 -84 214 16 21 29 26 64 26 l44 0 137 -157z"/>
</g>
</svg>
